<svg width="796" height="124" viewBox="0 0 796 124" fill="none" xmlns="http://www.w3.org/2000/svg">
<g clip-path="url(#clip0_785_5)">
<path d="M142.7 76.742L135.526 76.107C129.895 75.654 127.716 73.383 127.716 69.568C127.716 65.028 131.167 62.211 137.706 62.211C142.338 62.211 146.424 63.302 149.606 65.754L153.875 61.485C149.875 58.216 144.156 56.673 137.8 56.673C128.264 56.673 121.361 61.573 121.361 69.75C121.361 77.106 125.994 81.011 134.712 81.738L142.068 82.373C147.244 82.828 149.515 85.007 149.515 88.912C149.515 94.18 144.974 96.812 137.615 96.812C132.074 96.812 127.261 95.359 123.715 91.635L119.355 95.995C124.26 100.717 130.163 102.443 137.701 102.443C148.508 102.443 155.865 97.443 155.865 88.821C155.865 80.463 150.506 77.468 142.695 76.74L142.7 76.742ZM198.613 56.671C191.444 56.671 186.928 58.084 182.971 63.094C182.917 63.163 187.261 67.386 187.261 67.386C189.894 63.663 192.8 62.302 198.521 62.302C206.695 62.302 209.965 65.571 209.965 72.109V76.377H196.527C186.537 76.377 181.089 81.464 181.089 89.277C180.984 92.6263 182.189 95.8844 184.449 98.359C187.265 101.266 190.897 102.446 197.072 102.446C203.066 102.446 206.336 101.266 209.972 97.632V101.9H216.511V71.565C216.511 61.848 210.611 56.673 198.62 56.673L198.613 56.671ZM209.969 86.1C209.969 89.825 209.242 92.368 207.698 93.82C204.883 96.545 201.523 96.82 197.709 96.82C190.625 96.82 187.445 94.367 187.445 89.19C187.445 84.013 190.715 81.29 197.437 81.29H209.969V86.1ZM242.118 62.489C246.386 62.489 249.018 63.76 252.38 67.483C252.38 67.483 256.758 63.228 256.722 63.19C252.137 58.285 248.245 56.677 242.122 56.677C230.86 56.677 222.322 64.305 222.322 79.562C222.322 94.819 230.858 102.449 242.122 102.449C248.297 102.449 252.202 100.813 256.834 95.819L252.384 91.55C249.024 95.274 246.39 96.636 242.122 96.636C238.033 96.7993 234.139 94.8861 231.769 91.55C229.68 88.644 228.863 85.193 228.863 79.562C228.863 73.931 229.68 70.48 231.769 67.574C234.138 64.2373 238.033 62.3242 242.122 62.489H242.118ZM298.122 57.155H289.97L269.71 76.875L269.741 37.236H263.2V101.9H269.74L269.709 85.591L277.64 77.632L292.628 101.9H300.71L282.17 73.1L298.122 57.155ZM328.335 56.055C321.635 56.055 317.108 58.666 314.322 61.625C310.231 65.89 309.187 71.025 309.187 79.207C309.187 87.475 310.231 92.607 314.322 96.876C317.108 99.835 321.633 102.447 328.335 102.447C335.037 102.447 339.651 99.835 342.435 96.876C346.526 92.611 347.571 87.476 347.571 79.207C347.571 71.026 346.526 65.89 342.435 61.625C339.651 58.666 335.035 56.055 328.335 56.055ZM333.645 90.261C332.226 91.6312 330.305 92.3549 328.335 92.261C326.391 92.355 324.497 91.6295 323.113 90.261C320.762 87.911 320.502 83.908 320.502 79.207C320.502 74.506 320.762 70.591 323.113 68.241C324.497 66.8721 326.391 66.1466 328.335 66.241C330.305 66.1466 332.227 66.8703 333.645 68.241C335.994 70.591 336.256 74.507 336.256 79.207C336.256 83.907 335.994 87.907 333.645 90.261ZM377.7 56.575L368.562 84.6L359.336 56.573H347.41L364.123 101.92H373L389.623 56.573L377.7 56.575ZM408.873 56.053C397.124 56.053 389.116 64.408 389.116 79.205C389.116 97.571 399.387 102.445 410.092 102.445C418.274 102.445 422.714 99.92 427.326 95.306L420.451 88.606C417.578 91.479 415.14 92.871 410.179 92.871C403.825 92.871 400.257 88.606 400.257 82.771H428.631V77.726C428.631 65.279 421.494 56.053 408.873 56.053ZM400.257 75.027C400.274 73.3485 400.629 71.6907 401.302 70.153C402.728 67.2748 405.662 65.4538 408.874 65.4538C412.087 65.4538 415.021 67.2748 416.447 70.153C417.118 71.6914 417.473 73.3488 417.491 75.027H400.257ZM445.322 60.927V56.575H434.267V101.922H445.582V74.593C445.582 68.848 449.412 66.236 452.894 66.236C455.189 66.1567 457.391 67.1404 458.864 68.902L467.43 60.318C464.296 57.184 461.163 56.053 456.724 56.053C452.408 56.0018 448.269 57.7711 445.324 60.927H445.322ZM470.941 51.848V101.876H482.255V66.122H490.611V57.506H482.255V52.545C482.255 49.934 483.562 48.454 486.255 48.454H490.607V38.881H484.167C474.939 38.881 470.937 45.408 470.937 51.848H470.941ZM537.191 56.048C530.491 56.048 525.963 58.659 523.178 61.618C519.088 65.883 518.043 71.018 518.043 79.2C518.043 87.468 519.088 92.6 523.178 96.869C525.963 99.828 530.489 102.44 537.191 102.44C543.893 102.44 548.507 99.828 551.291 96.869C555.381 92.604 556.426 87.469 556.426 79.2C556.426 71.019 555.381 65.883 551.291 61.618C548.506 58.659 543.891 56.048 537.191 56.048ZM542.501 90.254C541.082 91.6242 539.161 92.3479 537.191 92.254C535.247 92.348 533.353 91.6225 531.969 90.254C529.619 87.904 529.358 83.901 529.358 79.2C529.358 74.499 529.619 70.584 531.969 68.234C533.353 66.8651 535.247 66.1396 537.191 66.234C539.161 66.1396 541.083 66.8633 542.501 68.234C544.85 70.584 545.112 74.5 545.112 79.2C545.112 83.9 544.85 87.9 542.501 90.254ZM609.883 56.57L602.573 84.6L593.26 56.575H584.993L575.765 84.6L568.455 56.573H556.444L570.37 101.92H579.683L589.17 73.46L598.657 101.92H607.97L621.809 56.573L609.883 56.57ZM507.3 88.257V38.881H495.989V88.953C495.989 95.394 499.907 101.922 509.219 101.922H515.659V92.347H511.308C508.436 92.347 507.308 90.955 507.308 88.257H507.3ZM174 64.246L180.046 58.2H167.666V43.5H161.127V89.912C161.127 96.541 164.941 101.9 172.57 101.9H177.2V96.269H173.75C169.573 96.269 167.666 93.816 167.666 89.73V64.246H174Z" fill="white"/>
<path fill-rule="evenodd" clip-rule="evenodd" d="M88 80H99V124H0V80H11V113H88V80Z" fill="#BBBBBB"/>
<path d="M22.9879 76.73L77.0129 88.085L79.2839 77.285L25.2589 65.925L22.9879 76.73ZM30.1369 50.861L80.1829 74.169L84.8449 64.16L34.7979 40.852L30.1369 50.861ZM43.9849 26.308L86.4129 61.639L93.4789 53.154L51.0509 17.824L43.9849 26.308ZM71.3719 0.192017L62.5119 6.78202L95.4599 51.082L104.32 44.493L71.3719 0.192017ZM22 102H77V91H22V102Z" fill="#F58025"/>
</g>
<path d="M650.04 62.3636V71.4545H623.761V62.3636H650.04ZM629.727 51.9091H641.83V92.5909C641.83 93.7083 642 94.5795 642.341 95.2045C642.682 95.8106 643.155 96.2367 643.761 96.483C644.386 96.7292 645.106 96.8523 645.92 96.8523C646.489 96.8523 647.057 96.8049 647.625 96.7102C648.193 96.5966 648.629 96.5114 648.932 96.4545L650.835 105.46C650.229 105.65 649.377 105.867 648.278 106.114C647.18 106.379 645.845 106.54 644.273 106.597C641.356 106.71 638.799 106.322 636.602 105.432C634.424 104.542 632.729 103.159 631.517 101.284C630.305 99.4091 629.708 97.0417 629.727 94.1818V51.9091ZM670.366 106.824C667.582 106.824 665.101 106.341 662.923 105.375C660.745 104.39 659.022 102.941 657.753 101.028C656.503 99.0966 655.878 96.6913 655.878 93.8125C655.878 91.3883 656.323 89.3523 657.213 87.7045C658.103 86.0568 659.315 84.7311 660.849 83.7273C662.384 82.7235 664.126 81.9659 666.077 81.4545C668.046 80.9432 670.111 80.5833 672.27 80.375C674.808 80.1098 676.853 79.8636 678.406 79.6364C679.959 79.3902 681.086 79.0303 681.787 78.5568C682.488 78.0833 682.838 77.3826 682.838 76.4545V76.2841C682.838 74.4848 682.27 73.0928 681.134 72.108C680.016 71.1231 678.425 70.6307 676.361 70.6307C674.183 70.6307 672.45 71.1136 671.162 72.0795C669.874 73.0265 669.022 74.2197 668.605 75.6591L657.412 74.75C657.98 72.0985 659.098 69.8068 660.764 67.875C662.431 65.9242 664.58 64.428 667.213 63.3864C669.865 62.3258 672.933 61.7955 676.418 61.7955C678.842 61.7955 681.162 62.0795 683.378 62.6477C685.613 63.2159 687.592 64.0966 689.315 65.2898C691.058 66.483 692.431 68.017 693.435 69.892C694.438 71.7481 694.94 73.9735 694.94 76.5682V106H683.463V99.9489H683.122C682.421 101.312 681.484 102.515 680.31 103.557C679.135 104.58 677.724 105.384 676.077 105.972C674.429 106.54 672.526 106.824 670.366 106.824ZM673.832 98.4716C675.613 98.4716 677.185 98.1212 678.548 97.4205C679.912 96.7008 680.982 95.7348 681.759 94.5227C682.535 93.3106 682.923 91.9375 682.923 90.4034V85.7727C682.545 86.0189 682.024 86.2462 681.361 86.4545C680.717 86.6439 679.988 86.8239 679.173 86.9943C678.359 87.1458 677.545 87.2879 676.73 87.4205C675.916 87.5341 675.177 87.6383 674.514 87.733C673.094 87.9413 671.853 88.2727 670.793 88.7273C669.732 89.1818 668.908 89.7973 668.321 90.5739C667.734 91.3314 667.44 92.2784 667.44 93.4148C667.44 95.0625 668.037 96.322 669.23 97.1932C670.442 98.0455 671.976 98.4716 673.832 98.4716ZM723.989 123.273C720.068 123.273 716.706 122.733 713.903 121.653C711.119 120.593 708.903 119.144 707.256 117.307C705.608 115.47 704.538 113.405 704.045 111.114L715.239 109.608C715.58 110.479 716.119 111.294 716.858 112.051C717.597 112.809 718.572 113.415 719.784 113.869C721.015 114.343 722.511 114.58 724.273 114.58C726.905 114.58 729.074 113.936 730.778 112.648C732.502 111.379 733.364 109.248 733.364 106.256V98.2727H732.852C732.322 99.4848 731.527 100.631 730.466 101.71C729.405 102.79 728.042 103.67 726.375 104.352C724.708 105.034 722.72 105.375 720.409 105.375C717.133 105.375 714.15 104.617 711.46 103.102C708.79 101.568 706.659 99.2292 705.068 96.0852C703.496 92.9223 702.71 88.9261 702.71 84.0966C702.71 79.1534 703.515 75.0246 705.125 71.7102C706.735 68.3958 708.875 65.9148 711.545 64.267C714.235 62.6193 717.18 61.7955 720.381 61.7955C722.824 61.7955 724.869 62.2121 726.517 63.0455C728.165 63.8598 729.491 64.8826 730.494 66.1136C731.517 67.3258 732.303 68.5189 732.852 69.6932H733.307V62.3636H745.324V106.426C745.324 110.138 744.415 113.244 742.597 115.744C740.778 118.244 738.259 120.119 735.04 121.369C731.839 122.638 728.155 123.273 723.989 123.273ZM724.244 96.2841C726.195 96.2841 727.843 95.8011 729.188 94.8352C730.551 93.8504 731.593 92.4489 732.312 90.6307C733.051 88.7936 733.42 86.5966 733.42 84.0398C733.42 81.483 733.061 79.267 732.341 77.392C731.621 75.4981 730.58 74.0303 729.216 72.9886C727.852 71.947 726.195 71.4261 724.244 71.4261C722.256 71.4261 720.58 71.9659 719.216 73.0455C717.852 74.1061 716.82 75.5833 716.119 77.4773C715.419 79.3712 715.068 81.5587 715.068 84.0398C715.068 86.5587 715.419 88.7367 716.119 90.5739C716.839 92.392 717.871 93.803 719.216 94.8068C720.58 95.7917 722.256 96.2841 724.244 96.2841ZM791.261 74.8068L780.182 75.4886C779.992 74.5417 779.585 73.6894 778.96 72.9318C778.335 72.1553 777.511 71.5398 776.489 71.0852C775.485 70.6117 774.282 70.375 772.881 70.375C771.006 70.375 769.424 70.7727 768.136 71.5682C766.848 72.3447 766.205 73.3864 766.205 74.6932C766.205 75.7348 766.621 76.6155 767.455 77.3352C768.288 78.0549 769.718 78.6326 771.744 79.0682L779.642 80.6591C783.884 81.5303 787.047 82.9318 789.131 84.8636C791.214 86.7955 792.256 89.3333 792.256 92.4773C792.256 95.3371 791.413 97.8466 789.727 100.006C788.061 102.165 785.769 103.85 782.852 105.062C779.955 106.256 776.612 106.852 772.824 106.852C767.047 106.852 762.445 105.65 759.017 103.244C755.608 100.82 753.61 97.5246 753.023 93.358L764.926 92.733C765.286 94.4943 766.157 95.839 767.54 96.767C768.922 97.6761 770.693 98.1307 772.852 98.1307C774.973 98.1307 776.678 97.7235 777.966 96.9091C779.273 96.0758 779.936 95.0057 779.955 93.6989C779.936 92.6004 779.472 91.7008 778.562 91C777.653 90.2803 776.252 89.7311 774.358 89.3523L766.801 87.8466C762.54 86.9943 759.367 85.517 757.284 83.4148C755.22 81.3125 754.188 78.6326 754.188 75.375C754.188 72.572 754.945 70.1572 756.46 68.1307C757.994 66.1042 760.144 64.5417 762.909 63.4432C765.693 62.3447 768.951 61.7955 772.682 61.7955C778.193 61.7955 782.53 62.9602 785.693 65.2898C788.875 67.6193 790.731 70.7917 791.261 74.8068Z" fill="#F58025"/>
<defs>
<clipPath id="clip0_785_5">
<rect width="622" height="124" fill="white"/>
</clipPath>
</defs>
</svg>
